<svg width="21" height="20" viewBox="0 0 21 20" fill="none" xmlns="http://www.w3.org/2000/svg">
<g id="Plus">
<rect id="Rectangle 106" x="0.229248" width="20" height="20" rx="4" fill="#6547A5"/>
<path id="Vector" d="M7.3721 9.14286C8.47667 9.14286 9.37211 8.24743 9.37211 7.14286V4.85714C9.37211 4.38376 9.75586 4 10.2292 4C10.7026 4 11.0864 4.38376 11.0864 4.85714V7.14286C11.0864 8.24743 11.9818 9.14286 13.0864 9.14286H15.3721C15.8455 9.14286 16.2292 9.52661 16.2292 10C16.2292 10.4734 15.8455 10.8571 15.3721 10.8571H13.0864C11.9818 10.8571 11.0864 11.7526 11.0864 12.8571V15.1429C11.0864 15.6162 10.7026 16 10.2292 16C9.75586 16 9.37211 15.6162 9.37211 15.1429V12.8571C9.37211 11.7526 8.47667 10.8571 7.37211 10.8571H5.08639C4.613 10.8571 4.22925 10.4734 4.22925 10C4.22925 9.52661 4.613 9.14286 5.08639 9.14286H7.3721Z" fill="white"/>
</g>
</svg>
