<svg aria-hidden="true" style="position: absolute; width: 0; height: 0; overflow: hidden;" version="1.1" xmlns="http://www.w3.org/2000/svg" xmlns:xlink="http://www.w3.org/1999/xlink">
<defs>
<symbol id="logo" viewBox="0 0 164 32">
<path fill="#28387e" style="fill: var(--color1, #28387e)" d="M32.452 16c0 8.837-7.265 16-16.226 16s-16.226-7.163-16.226-16c0-8.837 7.265-16 16.226-16s16.226 7.163 16.226 16z"></path>
<path fill="#fff" style="fill: var(--color2, #fff)" d="M21.843 14.228c0 3.722 0 5.424 0 9.157h-2.686v-3.355c0-1.489-1.242-2.696-2.775-2.696s-2.775 1.207-2.775 2.696v0.746h3.044v2.609h-5.729c0-3.733 0-5.435 0-9.157 0-2.93 2.445-5.305 5.461-5.305s5.461 2.375 5.461 5.305zM13.607 15.46c0.813-0.467 1.762-0.735 2.775-0.735s1.962 0.268 2.775 0.735v-1.232c0-1.489-1.242-2.696-2.775-2.696s-2.775 1.207-2.775 2.696v1.232z"></path>
<path fill="#28387e" style="fill: var(--color1, #28387e)" d="M46.706 22.771c-0.955 0-1.846-0.155-2.674-0.465-0.816-0.322-1.532-0.77-2.149-1.344s-1.101-1.246-1.45-2.016c-0.338-0.781-0.507-1.625-0.507-2.533 0-0.919 0.169-1.763 0.507-2.533 0.349-0.77 0.827-1.436 1.433-1.999 0.617-0.563 1.334-0.999 2.149-1.31 0.815-0.322 1.701-0.482 2.656-0.482 0.967 0 1.852 0.149 2.656 0.448s1.503 0.712 2.097 1.241l-2.324 2.309c-0.28-0.299-0.623-0.534-1.031-0.706-0.396-0.172-0.862-0.258-1.398-0.258-0.466 0-0.897 0.075-1.293 0.224-0.384 0.149-0.716 0.368-0.996 0.655s-0.501 0.638-0.664 1.051c-0.151 0.402-0.227 0.856-0.227 1.361 0 0.517 0.076 0.982 0.227 1.396 0.163 0.402 0.384 0.747 0.664 1.034s0.612 0.511 0.996 0.672c0.396 0.149 0.827 0.224 1.293 0.224 0.524 0 0.99-0.080 1.398-0.241 0.419-0.161 0.78-0.396 1.083-0.706l2.342 2.309c-0.617 0.528-1.311 0.942-2.079 1.241-0.769 0.287-1.672 0.431-2.708 0.431z"></path>
<path fill="#28387e" style="fill: var(--color1, #28387e)" d="M55.536 17.671v-2.378h2.114c0.478 0 0.839-0.115 1.083-0.345 0.256-0.23 0.384-0.534 0.384-0.913s-0.128-0.683-0.384-0.913c-0.245-0.23-0.606-0.345-1.083-0.345h-2.114v-2.481h2.674c0.862 0 1.619 0.155 2.272 0.465s1.165 0.741 1.538 1.292c0.373 0.551 0.559 1.195 0.559 1.93s-0.192 1.378-0.577 1.93c-0.373 0.551-0.897 0.982-1.573 1.292s-1.474 0.465-2.394 0.465h-2.499zM52.705 22.564v-12.268h3.495v12.268h-3.495zM59.415 22.564l-3.39-5.238 3.145-0.672 4.211 5.91h-3.967z"></path>
<path fill="#28387e" style="fill: var(--color1, #28387e)" d="M67.572 18.343l-4.735-8.047h4.019l3.582 6.565h-3.006l3.582-6.565h3.932l-4.77 8.047h-2.604zM67.17 22.564v-5.479h3.495v5.479h-3.495z"></path>
<path fill="#28387e" style="fill: var(--color1, #28387e)" d="M78.454 18.257v-2.481h2.254c0.268 0 0.513-0.052 0.734-0.155 0.233-0.115 0.419-0.281 0.559-0.5 0.14-0.23 0.21-0.511 0.21-0.844s-0.070-0.609-0.21-0.827c-0.14-0.23-0.326-0.396-0.559-0.5-0.221-0.115-0.466-0.172-0.734-0.172h-2.254v-2.481h2.936c0.803 0 1.526 0.161 2.166 0.482 0.653 0.31 1.165 0.764 1.538 1.361 0.385 0.586 0.577 1.298 0.577 2.137 0 0.827-0.192 1.539-0.577 2.137-0.373 0.597-0.885 1.057-1.538 1.378-0.641 0.31-1.363 0.465-2.166 0.465h-2.936zM75.623 22.564v-12.268h3.495v12.268h-3.495z"></path>
<path fill="#28387e" style="fill: var(--color1, #28387e)" d="M89.873 22.564v-12.268h3.495v12.268h-3.495zM86.151 13.225v-2.929h10.956v2.929h-10.956z"></path>
<path fill="#28387e" style="fill: var(--color1, #28387e)" d="M104.077 22.805c-0.978 0-1.881-0.161-2.708-0.482-0.816-0.322-1.532-0.77-2.15-1.344-0.606-0.574-1.078-1.252-1.415-2.033s-0.507-1.625-0.507-2.533c0-0.919 0.163-1.763 0.49-2.533 0.338-0.77 0.81-1.442 1.415-2.016s1.317-1.017 2.132-1.327c0.827-0.322 1.73-0.482 2.709-0.482s1.875 0.161 2.69 0.482c0.827 0.31 1.544 0.752 2.15 1.327s1.072 1.252 1.398 2.033c0.338 0.77 0.507 1.614 0.507 2.533 0 0.907-0.169 1.752-0.507 2.533-0.326 0.77-0.792 1.447-1.398 2.033-0.606 0.574-1.317 1.022-2.132 1.344-0.815 0.31-1.706 0.465-2.674 0.465zM104.042 19.773c0.652 0 1.217-0.138 1.694-0.414s0.845-0.666 1.101-1.172c0.257-0.505 0.385-1.097 0.385-1.775 0-0.505-0.076-0.959-0.227-1.361-0.14-0.414-0.35-0.764-0.629-1.051-0.28-0.299-0.618-0.523-1.014-0.672-0.385-0.161-0.822-0.241-1.31-0.241-0.653 0-1.218 0.138-1.695 0.414-0.478 0.264-0.845 0.649-1.101 1.154-0.257 0.494-0.385 1.080-0.385 1.758 0 0.517 0.070 0.982 0.21 1.396 0.152 0.414 0.367 0.77 0.647 1.068 0.279 0.287 0.611 0.511 0.996 0.672 0.396 0.149 0.838 0.224 1.328 0.224z"></path>
<path fill="#28387e" style="fill: var(--color1, #28387e)" d="M118.564 22.771c-0.966 0-1.863-0.155-2.69-0.465-0.816-0.322-1.532-0.77-2.15-1.344-0.606-0.574-1.078-1.246-1.415-2.016s-0.507-1.608-0.507-2.516c0-0.919 0.175-1.763 0.525-2.533 0.361-0.77 0.856-1.436 1.485-1.999 0.641-0.574 1.381-1.017 2.219-1.327 0.839-0.322 1.736-0.482 2.691-0.482 1.154 0 2.184 0.195 3.093 0.586 0.92 0.391 1.666 0.919 2.237 1.585l-2.359 2.326c-0.431-0.494-0.879-0.862-1.346-1.103s-1.025-0.362-1.678-0.362c-0.617 0-1.176 0.138-1.677 0.414-0.502 0.264-0.903 0.643-1.206 1.137-0.291 0.494-0.437 1.074-0.437 1.74s0.134 1.252 0.402 1.758c0.279 0.494 0.664 0.879 1.153 1.154s1.060 0.414 1.713 0.414c0.629 0 1.159-0.121 1.59-0.362s0.757-0.586 0.978-1.034c0.233-0.448 0.35-0.976 0.35-1.585l2.394 1.499-5.784-0.172v-2.757h6.902v0.517c0 1.47-0.274 2.722-0.822 3.756-0.535 1.034-1.293 1.821-2.271 2.361-0.967 0.54-2.097 0.81-3.39 0.81z"></path>
<path fill="#28387e" style="fill: var(--color1, #28387e)" d="M124.934 22.564l4.736-12.268h3.564l4.683 12.268h-3.634l-3.478-10.425h1.258l-3.565 10.425h-3.565zM128.010 20.497v-2.688h6.955v2.688h-6.955z"></path>
<path fill="#28387e" style="fill: var(--color1, #28387e)" d="M140.657 22.564v-12.268h3.495v12.268h-3.495zM136.935 13.225v-2.929h10.956v2.929h-10.956z"></path>
<path fill="#28387e" style="fill: var(--color1, #28387e)" d="M149.205 22.564v-12.268h3.495v12.268h-3.495zM152.036 22.564v-2.86h6.674v2.86h-6.674zM152.036 17.705v-2.791h6.028v2.791h-6.028zM152.036 13.156v-2.86h6.57v2.86h-6.57z"></path>
<path fill="#28387e" style="fill: var(--color1, #28387e)" d="M162.042 22.771c-0.547 0-1.002-0.184-1.363-0.551s-0.542-0.816-0.542-1.344c0-0.54 0.181-0.994 0.542-1.361s0.816-0.551 1.363-0.551c0.548 0 0.996 0.184 1.346 0.551 0.361 0.368 0.542 0.821 0.542 1.361 0 0.528-0.181 0.976-0.542 1.344-0.35 0.368-0.798 0.551-1.346 0.551z"></path>
</symbol>


<symbol id="arrow-right" width="34" height="16" viewBox="0 0 34 16" fill="none">  
  <path d="M25.4336 0.812303L26.1229 0.123047L34.0001 8.00026L33.3108 8.69936L25.4336 0.812303ZM25.4336 15.1882L33.3108 7.311L34.0099 8.0101L26.1327 15.8873L25.4336 15.1882Z" fill="#0065F2"/>
  <path d="M33.4781 7.60645H0V8.60645H33.4781V7.60645Z" fill="#0065F2"/>
</symbol>


<symbol id="crypto-arrow" xmlns="http://www.w3.org/2000/svg" width="25" height="24" viewBox="0 0 25 24" fill="none">
  <path d="M15.9566 8.01284L16.3619 7.60938L20.9942 12.2204L20.5889 12.6297L15.9566 8.01284ZM15.9566 16.428L20.5889 11.817L21 12.2262L16.3677 16.8372L15.9566 16.428Z" fill="#28387E"/>
  <path d="M20.6873 11.9899H1V12.5753H20.6873V11.9899Z" fill="#28387E"/>
  <path d="M15.9566 8.01284L16.3619 7.60938L20.9942 12.2204L20.5889 12.6297L15.9566 8.01284ZM15.9566 16.428L20.5889 11.817L21 12.2262L16.3677 16.8372L15.9566 16.428Z" stroke="#28387E"/>
  <path d="M20.6873 11.9899H1V12.5753H20.6873V11.9899Z" stroke="#28387E"/>
</symbol>

<symbol width="55" height="54" viewBox="0 0 55 54" fill="none" xmlns="http://www.w3.org/2000/svg">
<g id="Frame">
<path id="Vector" d="M10.5373 38.9721C8.21984 36.5106 6.97559 33.7498 6.97559 29.2746C6.97559 21.3996 12.5038 14.3413 20.5431 10.8516L22.5523 13.9521C15.0486 18.0111 13.5816 23.2783 12.9966 26.5993C14.2048 25.9738 15.7866 25.7556 17.3368 25.8996C21.3958 26.2753 24.5953 29.6076 24.5953 33.7498C24.5953 35.8384 23.7657 37.8414 22.2888 39.3183C20.812 40.7951 18.8089 41.6248 16.7203 41.6248C14.3061 41.6248 11.9976 40.5223 10.5373 38.9721ZM33.0373 38.9721C30.7198 36.5106 29.4756 33.7498 29.4756 29.2746C29.4756 21.3996 35.0038 14.3413 43.0431 10.8516L45.0523 13.9521C37.5486 18.0111 36.0816 23.2783 35.4966 26.5993C36.7048 25.9738 38.2866 25.7556 39.8368 25.8996C43.8958 26.2753 47.0953 29.6076 47.0953 33.7498C47.0953 35.8384 46.2657 37.8414 44.7888 39.3183C43.312 40.7951 41.3089 41.6248 39.2203 41.6248C36.8061 41.6248 34.4976 40.5223 33.0373 38.9721Z" fill="#CFD4DD"/>
</g>
</symbol>

<symbol id="plus" width="21" height="20" viewBox="0 0 21 20" fill="none" xmlns="http://www.w3.org/2000/svg">
<g id="Plus">
<rect id="Rectangle 106" x="0.229248" width="20" height="20" rx="4" fill="#6547A5"/>
<path id="Vector" d="M7.3721 9.14286C8.47667 9.14286 9.37211 8.24743 9.37211 7.14286V4.85714C9.37211 4.38376 9.75586 4 10.2292 4C10.7026 4 11.0864 4.38376 11.0864 4.85714V7.14286C11.0864 8.24743 11.9818 9.14286 13.0864 9.14286H15.3721C15.8455 9.14286 16.2292 9.52661 16.2292 10C16.2292 10.4734 15.8455 10.8571 15.3721 10.8571H13.0864C11.9818 10.8571 11.0864 11.7526 11.0864 12.8571V15.1429C11.0864 15.6162 10.7026 16 10.2292 16C9.75586 16 9.37211 15.6162 9.37211 15.1429V12.8571C9.37211 11.7526 8.47667 10.8571 7.37211 10.8571H5.08639C4.613 10.8571 4.22925 10.4734 4.22925 10C4.22925 9.52661 4.613 9.14286 5.08639 9.14286H7.3721Z" fill="white"/>
</g>
</symbol>

<symbol id="social-icons" xmlns="http://www.w3.org/2000/svg" width="87" height="18" viewBox="0 0 87 18" fill="none">
  <path fill-rule="evenodd" clip-rule="evenodd" d="M38.9955 0.0511511C39.9021 0.00978483 40.1915 0 42.5 0C44.8085 0 45.0979 0.00978483 46.0045 0.0511511C46.9093 0.0924161 47.5272 0.236118 48.0678 0.446256C48.6268 0.663445 49.1008 0.954089 49.5734 1.42663C50.0459 1.8992 50.3366 2.37323 50.5538 2.93218C50.7639 3.47284 50.9076 4.09073 50.9488 4.99546C50.9902 5.90208 51 6.19154 51 8.50002C51 10.8085 50.9902 11.0979 50.9488 12.0045C50.9076 12.9093 50.7639 13.5272 50.5538 14.0678C50.3366 14.6268 50.0459 15.1008 49.5734 15.5734C49.1008 16.0459 48.6268 16.3366 48.0678 16.5538C47.5272 16.7639 46.9093 16.9076 46.0045 16.9489C45.0979 16.9902 44.8085 17 42.5 17C40.1915 17 39.9021 16.9902 38.9955 16.9489C38.0907 16.9076 37.4728 16.7639 36.9322 16.5538C36.3732 16.3366 35.8992 16.0459 35.4266 15.5734C34.9541 15.1008 34.6634 14.6268 34.4463 14.0678C34.2361 13.5272 34.0924 12.9093 34.0512 12.0045C34.0098 11.0979 34 10.8085 34 8.50002C34 6.19154 34.0098 5.90208 34.0512 4.99546C34.0924 4.09073 34.2361 3.47284 34.4463 2.93218C34.6634 2.37323 34.9541 1.8992 35.4266 1.42663C35.8992 0.954089 36.3732 0.663445 36.9322 0.446256C37.4728 0.236118 38.0907 0.0924161 38.9955 0.0511511ZM47.513 1.87348C47.2135 1.75708 46.7634 1.6186 45.9347 1.58082C45.0384 1.53992 44.7696 1.53125 42.5 1.53125C40.2304 1.53125 39.9615 1.53992 39.0652 1.58082C38.2365 1.6186 37.7864 1.75708 37.4869 1.87348C37.0902 2.02768 36.807 2.21187 36.5096 2.50933C36.2121 2.80675 36.0279 3.08991 35.8737 3.48666C35.7573 3.78618 35.6188 4.23625 35.5811 5.06499C35.5402 5.96128 35.5315 6.23013 35.5315 8.49974C35.5315 10.7693 35.5402 11.0382 35.5811 11.9344C35.6188 12.7632 35.7573 13.2133 35.8737 13.5128C36.0279 13.9095 36.2121 14.1927 36.5096 14.4901C36.807 14.7876 37.0902 14.9718 37.4869 15.126C37.7864 15.2424 38.2365 15.3808 39.0652 15.4186C39.9614 15.4595 40.2302 15.4682 42.5 15.4682C44.7697 15.4682 45.0385 15.4595 45.9347 15.4186C46.7634 15.3808 47.2135 15.2424 47.513 15.126C47.9098 14.9718 48.1929 14.7876 48.4904 14.4901C48.7878 14.1927 48.972 13.9095 49.1262 13.5128C49.2426 13.2133 49.3811 12.7632 49.4189 11.9344C49.4598 11.0382 49.4684 10.7693 49.4684 8.49974C49.4684 6.23013 49.4598 5.96128 49.4189 5.06499C49.3811 4.23625 49.2426 3.78618 49.1262 3.48666C48.972 3.08991 48.7878 2.80675 48.4904 2.50933C48.1929 2.21187 47.9098 2.02768 47.513 1.87348ZM42.4999 4.13477C40.0892 4.13477 38.135 6.08897 38.135 8.49965C38.135 10.9103 40.0892 12.8645 42.4999 12.8645C44.9105 12.8645 46.8647 10.9103 46.8647 8.49965C46.8647 6.08897 44.9105 4.13477 42.4999 4.13477ZM39.6665 8.50034C39.6665 10.0651 40.935 11.3337 42.4999 11.3337C44.0647 11.3337 45.3332 10.0651 45.3332 8.50034C45.3332 6.93551 44.0647 5.66699 42.4999 5.66699C40.935 5.66699 39.6665 6.93551 39.6665 8.50034ZM47.0373 4.98239C47.6007 4.98239 48.0573 4.52574 48.0573 3.9624C48.0573 3.39906 47.6007 2.94238 47.0373 2.94238C46.474 2.94238 46.0173 3.39906 46.0173 3.9624C46.0173 4.52574 46.474 4.98239 47.0373 4.98239Z" fill="#666666"/>
  <path d="M9.77778 15.4722H14.2222V3.02778H1.77778V15.4722H8V11.0278H6.22222V9.25H8V7.77978C8 6.59133 8.12444 6.16022 8.35556 5.72556C8.58321 5.2955 8.93508 4.94395 9.36533 4.71667C9.70489 4.53444 10.1271 4.42511 10.8649 4.378C11.1573 4.35933 11.536 4.38244 12.0009 4.44911V6.138H11.5556C10.7404 6.138 10.4036 6.17622 10.2027 6.28378C10.0828 6.34543 9.98521 6.44302 9.92356 6.56289C9.81689 6.76378 9.77778 6.96289 9.77778 7.77889V9.25H12L11.5556 11.0278H9.77778V15.4722ZM0.888889 1.25H15.1111C15.3469 1.25 15.573 1.34365 15.7397 1.51035C15.9064 1.67705 16 1.90314 16 2.13889V16.3611C16 16.5969 15.9064 16.823 15.7397 16.9897C15.573 17.1564 15.3469 17.25 15.1111 17.25H0.888889C0.653141 17.25 0.427048 17.1564 0.260349 16.9897C0.0936505 16.823 0 16.5969 0 16.3611V2.13889C0 1.90314 0.0936505 1.67705 0.260349 1.51035C0.427048 1.34365 0.653141 1.25 0.888889 1.25Z" fill="#666666"/>
  <path d="M79.905 2.80011C79.145 2.79999 78.4153 3.09824 77.8729 3.63068C77.3305 4.16313 77.0189 4.88721 77.005 5.64711L76.977 7.22211C76.9754 7.30668 76.9559 7.38994 76.9198 7.46644C76.8837 7.54294 76.8319 7.61094 76.7676 7.66599C76.7034 7.72105 76.6283 7.7619 76.5472 7.78588C76.4661 7.80985 76.3808 7.81641 76.297 7.80511L74.736 7.59311C72.682 7.31311 70.714 6.36711 68.826 4.79411C68.228 8.10411 69.396 10.3971 72.209 12.1661L73.956 13.2641C74.039 13.3163 74.108 13.388 74.1568 13.473C74.2057 13.558 74.233 13.6536 74.2364 13.7516C74.2397 13.8496 74.219 13.9469 74.1761 14.035C74.1331 14.1231 74.0692 14.1994 73.99 14.2571L72.398 15.4201C73.345 15.4791 74.244 15.4371 74.99 15.2891C79.708 14.3471 82.845 10.7971 82.845 4.94111C82.845 4.46311 81.833 2.80011 79.905 2.80011ZM75.005 5.61011C75.0225 4.64616 75.3239 3.70878 75.8716 2.91534C76.4192 2.12189 77.1888 1.50763 78.0839 1.14948C78.979 0.791329 79.9599 0.705194 80.9037 0.901862C81.8476 1.09853 82.7124 1.56926 83.39 2.25511C84.101 2.25011 84.706 2.43011 86.059 1.61011C85.724 3.25011 85.559 3.96211 84.845 4.94111C84.845 12.5831 80.148 16.2991 75.382 17.2501C72.114 17.9021 67.362 16.8311 66 15.4091C66.694 15.3551 69.514 15.0521 71.144 13.8591C69.765 12.9501 64.276 9.72011 67.883 1.03611C69.576 3.01311 71.293 4.35911 73.033 5.07311C74.191 5.54811 74.475 5.53811 75.006 5.61111L75.005 5.61011Z" fill="#666666"/>
</symbol>

<symbol id="linkedin" fill="currentColor" viewBox="0 0 32 32">
<path d="M31.992 32v-0.001h0.008v-11.736c0-5.741-1.236-10.164-7.948-10.164-3.227 0-5.392 1.771-6.276 3.449h-0.093v-2.913h-6.364v21.364h6.627v-10.579c0-2.785 0.528-5.479 3.977-5.479 3.399 0 3.449 3.179 3.449 5.657v10.401h6.62z"></path>
<path d="M0.528 10.636h6.635v21.364h-6.635v-21.364z"></path>
<path d="M3.843 0c-2.121 0-3.843 1.721-3.843 3.843s1.721 3.879 3.843 3.879c2.121 0 3.843-1.757 3.843-3.879-0.001-2.121-1.723-3.843-3.843-3.843v0z"></path>
</symbol>

<symbol id="facebook" fill="currentColor" viewBox="0 0 32 32">
<path d="M21.329 5.313h2.921v-5.088c-0.504-0.069-2.237-0.225-4.256-0.225-4.212 0-7.097 2.649-7.097 7.519v4.481h-4.648v5.688h4.648v14.312h5.699v-14.311h4.46l0.708-5.688h-5.169v-3.919c0.001-1.644 0.444-2.769 2.735-2.769z"></path>
</symbol>

<symbol id="twitter" fill="currentColor" viewBox="0 0 32 32">
<path d="M32 6.078c-1.19 0.522-2.458 0.868-3.78 1.036 1.36-0.812 2.398-2.088 2.886-3.626-1.268 0.756-2.668 1.29-4.16 1.588-1.204-1.282-2.92-2.076-4.792-2.076-3.632 0-6.556 2.948-6.556 6.562 0 0.52 0.044 1.020 0.152 1.496-5.454-0.266-10.28-2.88-13.522-6.862-0.566 0.982-0.898 2.106-0.898 3.316 0 2.272 1.17 4.286 2.914 5.452-1.054-0.020-2.088-0.326-2.964-0.808 0 0.020 0 0.046 0 0.072 0 3.188 2.274 5.836 5.256 6.446-0.534 0.146-1.116 0.216-1.72 0.216-0.42 0-0.844-0.024-1.242-0.112 0.85 2.598 3.262 4.508 6.13 4.57-2.232 1.746-5.066 2.798-8.134 2.798-0.538 0-1.054-0.024-1.57-0.090 2.906 1.874 6.35 2.944 10.064 2.944 12.072 0 18.672-10 18.672-18.668 0-0.29-0.010-0.57-0.024-0.848 1.302-0.924 2.396-2.078 3.288-3.406z"></path>
</symbol>

<symbol id="instagram" fill="currentColor" viewBox="0 0 32 32">
<path d="M31.969 9.408c-0.075-1.7-0.35-2.869-0.744-3.882-0.406-1.075-1.032-2.038-1.851-2.838-0.8-0.813-1.769-1.444-2.832-1.844-1.019-0.394-2.182-0.669-3.882-0.744-1.713-0.081-2.257-0.1-6.601-0.1s-4.888 0.019-6.595 0.094c-1.7 0.075-2.869 0.35-3.882 0.744-1.075 0.406-2.038 1.031-2.838 1.85-0.813 0.8-1.444 1.769-1.844 2.832-0.394 1.019-0.669 2.182-0.744 3.882-0.081 1.713-0.1 2.257-0.1 6.601s0.019 4.888 0.094 6.595c0.075 1.7 0.35 2.869 0.744 3.882 0.406 1.075 1.038 2.038 1.85 2.838 0.8 0.813 1.769 1.444 2.832 1.844 1.019 0.394 2.182 0.669 3.882 0.744 1.706 0.075 2.25 0.094 6.595 0.094s4.888-0.019 6.595-0.094c1.7-0.075 2.869-0.35 3.882-0.744 2.151-0.832 3.851-2.532 4.682-4.682 0.394-1.019 0.669-2.182 0.744-3.882 0.075-1.707 0.094-2.251 0.094-6.595s-0.006-4.888-0.081-6.595zM29.087 22.473c-0.069 1.563-0.331 2.407-0.55 2.969-0.538 1.394-1.644 2.5-3.038 3.038-0.563 0.219-1.413 0.481-2.969 0.55-1.688 0.075-2.194 0.094-6.464 0.094s-4.782-0.019-6.464-0.094c-1.563-0.069-2.407-0.331-2.969-0.55-0.694-0.256-1.325-0.663-1.838-1.194-0.531-0.519-0.938-1.144-1.194-1.838-0.219-0.563-0.481-1.413-0.55-2.969-0.075-1.688-0.094-2.194-0.094-6.464s0.019-4.782 0.094-6.464c0.069-1.563 0.331-2.407 0.55-2.969 0.256-0.694 0.663-1.325 1.2-1.838 0.519-0.531 1.144-0.938 1.838-1.194 0.563-0.219 1.413-0.481 2.969-0.55 1.688-0.075 2.194-0.094 6.464-0.094 4.276 0 4.782 0.019 6.464 0.094 1.563 0.069 2.407 0.331 2.969 0.55 0.694 0.256 1.325 0.662 1.838 1.194 0.531 0.519 0.938 1.144 1.194 1.838 0.219 0.563 0.481 1.413 0.55 2.969 0.075 1.688 0.094 2.194 0.094 6.464s-0.019 4.77-0.094 6.458z"></path>
<path d="M16.059 7.783c-4.538 0-8.22 3.682-8.22 8.22s3.682 8.22 8.22 8.22c4.539 0 8.22-3.682 8.22-8.22s-3.682-8.22-8.22-8.22zM16.059 21.335c-2.944 0-5.332-2.388-5.332-5.332s2.388-5.332 5.332-5.332c2.944 0 5.332 2.388 5.332 5.332s-2.388 5.332-5.332 5.332z"></path>
<path d="M26.524 7.458c0 1.060-0.859 1.919-1.919 1.919s-1.919-0.859-1.919-1.919c0-1.060 0.859-1.919 1.919-1.919s1.919 0.859 1.919 1.919z"></path>
</symbol>

<symbol id="vector" xmlns="http://www.w3.org/2000/svg" width="23" height="19" viewBox="0 0 23 19" fill="none">
  <path d="M20.7311 16.7031H22.7335V18.7031H0.708008V16.7031H2.71032V1.70312C2.71032 1.43791 2.8158 1.18355 3.00355 0.996018C3.19131 0.808482 3.44596 0.703125 3.71148 0.703125H13.723C13.9886 0.703125 14.2432 0.808482 14.431 0.996018C14.6187 1.18355 14.7242 1.43791 14.7242 1.70312V16.7031H18.7288V8.70312H16.7265V6.70312H19.73C19.9955 6.70312 20.2502 6.80848 20.4379 6.99602C20.6257 7.18355 20.7311 7.43791 20.7311 7.70312V16.7031ZM4.71264 2.70312V16.7031H12.7219V2.70312H4.71264ZM6.71495 8.70312H10.7196V10.7031H6.71495V8.70312ZM6.71495 4.70312H10.7196V6.70312H6.71495V4.70312Z" fill="#666666"/>
</symbol>

<symbol id="headphones" xmlns="http://www.w3.org/2000/svg" width="21" height="20" viewBox="0 0 21 20" fill="none">
  <path d="M10.7208 2.70312C8.59662 2.70312 6.55943 3.54598 5.0574 5.04627C3.55537 6.54656 2.71154 8.58139 2.71154 10.7031H5.71502C6.24606 10.7031 6.75536 10.9138 7.13087 11.2889C7.50637 11.664 7.71733 12.1727 7.71733 12.7031V17.7031C7.71733 18.2336 7.50637 18.7423 7.13087 19.1173C6.75536 19.4924 6.24606 19.7031 5.71502 19.7031H2.71154C2.1805 19.7031 1.6712 19.4924 1.29569 19.1173C0.920186 18.7423 0.709229 18.2336 0.709229 17.7031V10.7031C0.709229 5.18013 5.19141 0.703125 10.7208 0.703125C16.2502 0.703125 20.7324 5.18013 20.7324 10.7031V17.7031C20.7324 18.2336 20.5214 18.7423 20.1459 19.1173C19.7704 19.4924 19.2611 19.7031 18.7301 19.7031H15.7266C15.1955 19.7031 14.6862 19.4924 14.3107 19.1173C13.9352 18.7423 13.7243 18.2336 13.7243 17.7031V12.7031C13.7243 12.1727 13.9352 11.664 14.3107 11.2889C14.6862 10.9138 15.1955 10.7031 15.7266 10.7031H18.7301C18.7301 8.58139 17.8862 6.54656 16.3842 5.04627C14.8822 3.54598 12.845 2.70312 10.7208 2.70312ZM2.71154 12.7031V17.7031H5.71502V12.7031H2.71154ZM15.7266 12.7031V17.7031H18.7301V12.7031H15.7266Z" fill="#666666"/>
</symbol>

<symbol id="email" xmlns="http://www.w3.org/2000/svg" width="21" height="21" viewBox="0 0 21 21" fill="none">
  <path d="M0.95251 6.5576L10.2102 1.0136C10.3658 0.920352 10.5439 0.871094 10.7253 0.871094C10.9068 0.871094 11.0848 0.920352 11.2404 1.0136L20.4891 6.5586C20.5633 6.60302 20.6247 6.66588 20.6674 6.74107C20.71 6.81626 20.7324 6.90119 20.7324 6.9876V19.7036C20.7324 19.9688 20.6269 20.2232 20.4391 20.4107C20.2514 20.5982 19.9967 20.7036 19.7312 20.7036H1.71039C1.44486 20.7036 1.19021 20.5982 1.00246 20.4107C0.814707 20.2232 0.709229 19.9688 0.709229 19.7036V6.9866C0.70921 6.90019 0.731612 6.81526 0.774249 6.74007C0.816886 6.66488 0.878303 6.60202 0.95251 6.5576ZM2.71154 7.8366V18.7036H18.7301V7.8356L10.7248 3.0356L2.71154 7.8356V7.8366ZM10.7809 13.4016L16.083 8.9386L17.3725 10.4686L10.7949 16.0056L4.07712 10.4756L5.35059 8.9316L10.7809 13.4016Z" fill="#666666"/>
</symbol>


<symbol id="banner-circle" width="128" height="128" viewBox="0 0 128 128" fill="none" xmlns="http://www.w3.org/2000/svg">
<path fill-rule="evenodd" clip-rule="evenodd" d="M127.98 65.6308C127.981 65.5816 127.982 65.5323 127.983 65.4831C127.994 64.9901 128 64.4957 128 64C128 63.5043 127.994 63.0099 127.983 62.5169C127.982 62.4677 127.981 62.4184 127.98 62.3692C127.978 62.3199 127.977 62.2706 127.976 62.2214C127.813 62.2255 127.684 62.3607 127.688 62.5236C127.699 63.0144 127.704 63.5065 127.704 64C127.704 64.4934 127.699 64.9856 127.688 65.4763C127.684 65.6393 127.813 65.7745 127.976 65.7786C127.977 65.7293 127.978 65.6801 127.98 65.6308ZM127.868 68.1412C127.706 68.1304 127.565 68.2533 127.554 68.4159C127.486 69.399 127.397 70.3759 127.285 71.3461C127.267 71.5081 127.383 71.6545 127.545 71.6735C127.551 71.6245 127.556 71.5756 127.562 71.5267C127.568 71.4778 127.573 71.4288 127.579 71.3799C127.691 70.4051 127.781 69.4237 127.849 68.4361C127.852 68.387 127.855 68.3378 127.859 68.2887C127.862 68.2395 127.865 68.1904 127.868 68.1412ZM127.221 74.0161C127.06 73.9904 126.908 74.0998 126.882 74.2608C126.725 75.2326 126.546 76.1971 126.345 77.1536C126.311 77.3132 126.413 77.4697 126.573 77.5035C126.583 77.4554 126.593 77.4072 126.604 77.359C126.614 77.3108 126.624 77.2626 126.634 77.2144C126.836 76.2534 127.016 75.2844 127.174 74.308C127.182 74.2594 127.19 74.2108 127.198 74.1621C127.205 74.1134 127.213 74.0648 127.221 74.0161ZM126.033 79.8063C125.875 79.7658 125.715 79.8607 125.674 80.0185C125.427 80.9711 125.159 81.915 124.87 82.8498C124.821 83.0055 124.908 83.1708 125.064 83.2193C125.079 83.1723 125.093 83.1253 125.108 83.0783C125.123 83.0312 125.137 82.9842 125.152 82.9371C125.442 81.998 125.712 81.0497 125.96 80.0927C125.972 80.045 125.984 79.9973 125.997 79.9495C126.009 79.9018 126.021 79.8541 126.033 79.8063ZM124.312 85.463C124.159 85.408 123.99 85.4875 123.935 85.6408C123.6 86.5658 123.246 87.4807 122.871 88.3852C122.808 88.5358 122.879 88.7085 123.03 88.7712C123.049 88.7258 123.068 88.6804 123.087 88.6349C123.106 88.5894 123.125 88.5439 123.144 88.4984C123.52 87.5897 123.877 86.6705 124.213 85.7412C124.229 85.6949 124.246 85.6485 124.263 85.6022C124.279 85.5558 124.296 85.5094 124.312 85.463ZM122.073 90.935C121.925 90.866 121.75 90.9295 121.68 91.077C121.262 91.9663 120.824 92.8444 120.366 93.7107C120.29 93.8548 120.345 94.0334 120.489 94.1098C120.512 94.0663 120.535 94.0229 120.559 93.9793C120.582 93.9358 120.605 93.8923 120.628 93.8487C121.087 92.9784 121.528 92.0963 121.948 91.2028C121.969 91.1582 121.99 91.1136 122.011 91.069C122.031 91.0244 122.052 90.9797 122.073 90.935ZM119.336 96.1755C119.195 96.0932 119.015 96.1401 118.932 96.2806C118.433 97.1269 117.916 97.9608 117.38 98.7815C117.291 98.918 117.329 99.1008 117.465 99.1902C117.493 99.1491 117.52 99.1079 117.547 99.0667C117.574 99.0256 117.601 98.9843 117.628 98.9431C118.166 98.1186 118.686 97.2809 119.187 96.4306C119.212 96.3881 119.237 96.3457 119.261 96.3032C119.286 96.2606 119.311 96.2181 119.336 96.1755ZM116.127 101.141C115.994 101.046 115.81 101.076 115.715 101.208C115.141 102.005 114.549 102.787 113.939 103.555C113.838 103.683 113.859 103.869 113.987 103.97C114.017 103.932 114.048 103.893 114.079 103.855C114.11 103.816 114.14 103.778 114.171 103.739C114.783 102.967 115.378 102.181 115.955 101.381C115.983 101.341 116.012 101.301 116.041 101.261C116.07 101.221 116.098 101.181 116.127 101.141ZM112.474 105.79C112.351 105.683 112.165 105.696 112.058 105.819C111.413 106.559 110.752 107.284 110.074 107.993C109.962 108.111 109.966 108.298 110.084 108.411C110.118 108.375 110.152 108.34 110.186 108.304C110.22 108.269 110.254 108.233 110.288 108.197C110.969 107.485 111.633 106.756 112.281 106.013C112.313 105.976 112.345 105.939 112.378 105.901C112.41 105.864 112.442 105.827 112.474 105.79ZM108.411 110.084C108.298 109.966 108.111 109.962 107.993 110.074C107.284 110.752 106.559 111.413 105.819 112.058C105.696 112.165 105.683 112.351 105.79 112.474C105.827 112.442 105.864 112.41 105.901 112.378C105.939 112.345 105.976 112.313 106.013 112.281C106.756 111.633 107.485 110.969 108.197 110.288C108.233 110.254 108.269 110.22 108.304 110.186C108.34 110.152 108.375 110.118 108.411 110.084ZM103.97 113.987C103.869 113.859 103.683 113.838 103.555 113.939C102.787 114.549 102.005 115.141 101.208 115.715C101.076 115.81 101.046 115.994 101.141 116.127C101.181 116.098 101.221 116.07 101.261 116.041C101.301 116.012 101.341 115.983 101.381 115.955C102.181 115.378 102.967 114.783 103.739 114.171C103.778 114.14 103.816 114.11 103.855 114.079C103.893 114.048 103.932 114.017 103.97 113.987ZM99.1902 117.465C99.1009 117.329 98.918 117.291 98.7815 117.38C97.9608 117.916 97.1269 118.433 96.2806 118.932C96.1401 119.015 96.0932 119.195 96.1755 119.336C96.2181 119.311 96.2606 119.286 96.3032 119.261C96.3457 119.237 96.3882 119.212 96.4306 119.187C97.2809 118.686 98.1186 118.166 98.9431 117.628C98.9843 117.601 99.0256 117.574 99.0667 117.547C99.1079 117.52 99.1491 117.493 99.1902 117.465ZM94.1098 120.489C94.0334 120.345 93.8548 120.29 93.7107 120.366C92.8444 120.824 91.9663 121.262 91.077 121.68C90.9295 121.75 90.866 121.925 90.935 122.073C90.9797 122.052 91.0244 122.031 91.069 122.011C91.1136 121.99 91.1582 121.969 91.2028 121.948C92.0963 121.528 92.9784 121.087 93.8487 120.628C93.8923 120.605 93.9358 120.582 93.9793 120.559C94.0229 120.535 94.0663 120.512 94.1098 120.489ZM88.7712 123.03C88.7085 122.879 88.5358 122.808 88.3852 122.871C87.4807 123.246 86.5658 123.6 85.6408 123.935C85.4875 123.99 85.408 124.159 85.463 124.312C85.5094 124.296 85.5558 124.279 85.6022 124.263C85.6485 124.246 85.6949 124.229 85.7412 124.213C86.6705 123.877 87.5897 123.52 88.4984 123.144C88.5439 123.125 88.5894 123.106 88.6349 123.087C88.6804 123.068 88.7258 123.049 88.7712 123.03ZM83.2193 125.064C83.1708 124.908 83.0055 124.821 82.8498 124.87C81.915 125.159 80.9711 125.427 80.0185 125.674C79.8607 125.715 79.7658 125.875 79.8063 126.033C79.8541 126.021 79.9018 126.009 79.9495 125.997C79.9973 125.984 80.045 125.972 80.0927 125.96C81.0497 125.712 81.998 125.442 82.9371 125.152C82.9842 125.137 83.0312 125.123 83.0783 125.108C83.1253 125.093 83.1723 125.079 83.2193 125.064ZM77.5035 126.573C77.4697 126.413 77.3132 126.311 77.1536 126.345C76.1971 126.546 75.2326 126.725 74.2608 126.882C74.0998 126.908 73.9904 127.06 74.0161 127.221C74.0648 127.213 74.1134 127.205 74.1621 127.198C74.2108 127.19 74.2594 127.182 74.308 127.174C75.2844 127.016 76.2534 126.836 77.2144 126.634C77.2626 126.624 77.3108 126.614 77.359 126.604C77.4072 126.593 77.4554 126.583 77.5035 126.573ZM71.6735 127.545C71.6545 127.383 71.5081 127.267 71.3461 127.285C70.3759 127.397 69.399 127.486 68.416 127.554C68.2533 127.565 68.1304 127.706 68.1412 127.868C68.1904 127.865 68.2395 127.862 68.2887 127.859C68.3379 127.855 68.387 127.852 68.4362 127.849C69.4237 127.781 70.4051 127.691 71.3799 127.579C71.4288 127.573 71.4778 127.568 71.5267 127.562C71.5756 127.556 71.6245 127.551 71.6735 127.545ZM65.7786 127.976C65.7745 127.813 65.6394 127.684 65.4764 127.688C64.9856 127.699 64.4935 127.704 64 127.704C63.5066 127.704 63.0144 127.699 62.5237 127.688C62.3607 127.684 62.2255 127.813 62.2214 127.976C62.2707 127.977 62.3199 127.978 62.3692 127.98C62.4184 127.981 62.4677 127.982 62.5169 127.983C63.0099 127.994 63.5043 128 64 128C64.4957 128 64.9901 127.994 65.4831 127.983C65.5323 127.982 65.5816 127.981 65.6308 127.98C65.6801 127.978 65.7294 127.977 65.7786 127.976ZM59.8588 127.868C59.8696 127.706 59.7467 127.565 59.5841 127.554C58.601 127.486 57.6241 127.397 56.6539 127.285C56.4919 127.267 56.3455 127.383 56.3265 127.545C56.3755 127.551 56.4244 127.556 56.4733 127.562C56.5222 127.568 56.5712 127.573 56.6202 127.579C57.5949 127.691 58.5763 127.781 59.5639 127.849C59.613 127.852 59.6622 127.855 59.7113 127.859C59.7605 127.862 59.8097 127.865 59.8588 127.868ZM53.9839 127.221C54.0096 127.06 53.9002 126.908 53.7392 126.882C52.7674 126.725 51.8029 126.546 50.8463 126.345C50.6868 126.311 50.5303 126.413 50.4965 126.573C50.5446 126.583 50.5928 126.593 50.641 126.604C50.6892 126.614 50.7374 126.624 50.7856 126.634C51.7466 126.836 52.7156 127.016 53.692 127.174C53.7406 127.182 53.7892 127.19 53.8379 127.198C53.8866 127.205 53.9352 127.213 53.9839 127.221ZM48.1937 126.033C48.2342 125.875 48.1393 125.715 47.9815 125.674C47.0289 125.427 46.085 125.159 45.1502 124.87C44.9945 124.821 44.8292 124.908 44.7807 125.064C44.8277 125.079 44.8747 125.093 44.9217 125.108C44.9688 125.123 45.0158 125.137 45.0629 125.152C46.002 125.442 46.9503 125.712 47.9073 125.96C47.955 125.972 48.0027 125.984 48.0505 125.997C48.0982 126.009 48.1459 126.021 48.1937 126.033ZM42.537 124.312C42.592 124.159 42.5125 123.99 42.3592 123.935C41.4343 123.6 40.5193 123.246 39.6148 122.871C39.4642 122.808 39.2915 122.879 39.2288 123.03C39.2742 123.049 39.3196 123.068 39.3651 123.087C39.4106 123.106 39.4561 123.125 39.5016 123.144C40.4103 123.52 41.3295 123.877 42.2588 124.213C42.3051 124.229 42.3515 124.246 42.3978 124.263C42.4442 124.279 42.4906 124.296 42.537 124.312ZM37.065 122.073C37.134 121.925 37.0705 121.75 36.923 121.68C36.0337 121.262 35.1556 120.824 34.2893 120.366C34.1452 120.29 33.9666 120.345 33.8902 120.489C33.9337 120.512 33.9771 120.535 34.0207 120.559C34.0642 120.582 34.1077 120.605 34.1513 120.628C35.0216 121.087 35.9037 121.528 36.7972 121.948C36.8418 121.969 36.8864 121.99 36.931 122.011C36.9756 122.031 37.0203 122.052 37.065 122.073ZM31.8245 119.336C31.9068 119.195 31.8599 119.015 31.7194 118.932C30.8731 118.433 30.0392 117.916 29.2185 117.38C29.082 117.291 28.8992 117.329 28.8098 117.465C28.8509 117.493 28.8921 117.52 28.9333 117.547C28.9744 117.574 29.0157 117.601 29.0569 117.628C29.8814 118.166 30.7191 118.686 31.5694 119.187C31.6118 119.212 31.6543 119.237 31.6968 119.261C31.7394 119.286 31.7819 119.311 31.8245 119.336ZM26.8593 116.127C26.9542 115.994 26.9242 115.81 26.7919 115.715C25.9954 115.141 25.2128 114.549 24.4445 113.939C24.3168 113.838 24.1312 113.859 24.0296 113.987C24.0681 114.017 24.1066 114.048 24.1451 114.079C24.1836 114.11 24.2222 114.14 24.2608 114.171C25.0326 114.783 25.8189 115.378 26.619 115.955C26.659 115.983 26.699 116.012 26.739 116.041C26.7791 116.07 26.8192 116.098 26.8593 116.127ZM22.2104 112.474C22.3172 112.351 22.3042 112.165 22.1812 112.058C21.4412 111.413 20.7161 110.752 20.0067 110.074C19.8888 109.962 19.7021 109.966 19.5892 110.084C19.6247 110.118 19.6602 110.152 19.6958 110.186C19.7313 110.22 19.7669 110.254 19.8025 110.288C20.5152 110.969 21.2436 111.633 21.9871 112.281C22.0242 112.313 22.0614 112.345 22.0986 112.378C22.1359 112.41 22.1731 112.442 22.2104 112.474ZM17.9165 108.411C18.034 108.298 18.0382 108.111 17.9256 107.993C17.248 107.284 16.5867 106.559 15.9421 105.819C15.8351 105.696 15.6487 105.683 15.5256 105.79C15.5578 105.827 15.59 105.864 15.6223 105.901C15.6545 105.939 15.6869 105.976 15.7192 106.013C16.3667 106.756 17.0311 107.485 17.7118 108.197C17.7458 108.233 17.7799 108.269 17.814 108.304C17.8481 108.34 17.8823 108.375 17.9165 108.411ZM14.0133 103.97C14.1407 103.869 14.162 103.683 14.0607 103.555C13.4513 102.787 12.8593 102.005 12.2853 101.208C12.1899 101.076 12.0056 101.046 11.8732 101.141C11.9018 101.181 11.9305 101.221 11.9592 101.261C11.9879 101.301 12.0167 101.341 12.0455 101.381C12.6222 102.181 13.2169 102.967 13.8291 103.739C13.8597 103.778 13.8904 103.816 13.9211 103.855C13.9518 103.893 13.9825 103.932 14.0133 103.97ZM10.5345 99.1902C10.6707 99.1008 10.709 98.918 10.6198 98.7815C10.084 97.9608 9.56655 97.1269 9.06812 96.2806C8.98539 96.1401 8.80457 96.0932 8.66398 96.1755C8.68878 96.2181 8.71364 96.2606 8.73854 96.3032C8.76345 96.3457 8.7884 96.3882 8.8134 96.4306C9.31415 97.2809 9.83399 98.1186 10.3723 98.9431C10.3993 98.9843 10.4262 99.0256 10.4533 99.0668C10.4803 99.1079 10.5074 99.1491 10.5345 99.1902ZM7.51093 94.1098C7.65483 94.0334 7.70979 93.8548 7.63364 93.7107C7.17609 92.8444 6.73793 91.9663 6.31972 91.077C6.25035 90.9295 6.07465 90.866 5.92704 90.935C5.9478 90.9797 5.96861 91.0244 5.98947 91.069C6.01033 91.1136 6.03125 91.1582 6.05221 91.2028C6.47237 92.0963 6.91257 92.9784 7.37225 93.8487C7.39527 93.8923 7.41833 93.9358 7.44144 93.9793C7.46455 94.0229 7.48771 94.0663 7.51093 94.1098ZM4.97022 88.7712C5.1206 88.7085 5.19187 88.5358 5.12942 88.3852C4.75435 87.4807 4.39952 86.5658 4.0655 85.6408C4.01012 85.4875 3.84108 85.408 3.6877 85.463C3.70422 85.5094 3.72079 85.5558 3.73742 85.6022C3.75405 85.6485 3.77073 85.6949 3.78746 85.7412C4.12305 86.6705 4.47954 87.5897 4.85635 88.4984C4.87523 88.5439 4.89416 88.5894 4.91313 88.6349C4.93211 88.6804 4.95114 88.7258 4.97022 88.7712ZM2.936 83.2193C3.09156 83.1708 3.17858 83.0055 3.1304 82.8498C2.84127 81.915 2.57308 80.9711 2.32637 80.0185C2.2855 79.8607 2.12459 79.7658 1.96675 79.8063C1.97889 79.8541 1.99107 79.9018 2.00331 79.9495C2.01555 79.9973 2.02785 80.045 2.0402 80.0927C2.28806 81.0497 2.55751 81.998 2.84799 82.9371C2.86255 82.9842 2.87717 83.0312 2.89183 83.0783C2.9065 83.1253 2.92123 83.1723 2.936 83.2193ZM1.42719 77.5035C1.58658 77.4697 1.68858 77.3132 1.65509 77.1536C1.45429 76.1971 1.27494 75.2326 1.11758 74.2608C1.09152 74.0998 0.940108 73.9904 0.779197 74.0161C0.786848 74.0648 0.794554 74.1134 0.802315 74.1621C0.810079 74.2108 0.817897 74.2594 0.82577 74.308C0.983862 75.2844 1.16404 76.2534 1.36578 77.2144C1.37591 77.2626 1.38608 77.3108 1.39632 77.359C1.40655 77.4072 1.41684 77.4554 1.42719 77.5035ZM0.455282 71.6735C0.617126 71.6545 0.733166 71.5081 0.714569 71.3461C0.603171 70.3759 0.513569 69.399 0.446267 68.416C0.435131 68.2533 0.294425 68.1304 0.13183 68.1412C0.134971 68.1904 0.138167 68.2395 0.141419 68.2887C0.144672 68.3379 0.147981 68.387 0.151346 68.4361C0.218958 69.4237 0.308973 70.4051 0.420887 71.3799C0.426508 71.4288 0.432184 71.4778 0.437915 71.5267C0.443649 71.5756 0.449438 71.6245 0.455282 71.6735ZM0.0242371 65.7786C0.18714 65.7745 0.316088 65.6394 0.312381 65.4764C0.301222 64.9856 0.295612 64.4935 0.295612 64C0.295612 63.5066 0.301222 63.0144 0.312381 62.5237C0.316087 62.3607 0.187139 62.2255 0.0242365 62.2214C0.022893 62.2707 0.0216052 62.3199 0.020373 62.3692C0.0191414 62.4184 0.0179654 62.4677 0.0168451 62.5169C0.00563523 63.0099 0 63.5043 0 64C0 64.4957 0.00563539 64.9901 0.0168456 65.4831C0.0179659 65.5323 0.0191419 65.5816 0.0203735 65.6308C0.0216057 65.6801 0.0228936 65.7294 0.0242371 65.7786ZM0.131829 59.8588C0.294424 59.8696 0.43513 59.7467 0.446266 59.5841C0.513568 58.601 0.60317 57.6241 0.714568 56.6539C0.733165 56.4919 0.617125 56.3455 0.455282 56.3265C0.449438 56.3755 0.443648 56.4244 0.437915 56.4733C0.432183 56.5222 0.426507 56.5712 0.420886 56.6201C0.308972 57.5949 0.218956 58.5763 0.151345 59.5639C0.14798 59.613 0.144671 59.6622 0.141418 59.7113C0.138166 59.7605 0.13497 59.8097 0.131829 59.8588ZM0.779197 53.9839C0.940108 54.0096 1.09152 53.9002 1.11758 53.7392C1.27494 52.7674 1.45429 51.8029 1.65509 50.8463C1.68858 50.6868 1.58658 50.5303 1.42718 50.4965C1.41684 50.5446 1.40655 50.5928 1.39632 50.641C1.38608 50.6892 1.37591 50.7374 1.36578 50.7856C1.16404 51.7466 0.983861 52.7156 0.82577 53.692C0.817897 53.7406 0.810078 53.7892 0.802314 53.8379C0.794554 53.8866 0.786848 53.9352 0.779197 53.9839ZM1.96675 48.1937C2.12459 48.2342 2.2855 48.1393 2.32637 47.9815C2.57308 47.0289 2.84127 46.085 3.1304 45.1502C3.17858 44.9945 3.09156 44.8292 2.936 44.7807C2.92123 44.8277 2.9065 44.8747 2.89183 44.9217C2.87717 44.9688 2.86255 45.0158 2.84799 45.0629C2.55751 46.002 2.28806 46.9503 2.0402 47.9073C2.02785 47.955 2.01555 48.0027 2.00331 48.0505C1.99107 48.0982 1.97889 48.1459 1.96675 48.1937ZM3.6877 42.537C3.84108 42.592 4.01012 42.5125 4.0655 42.3592C4.39952 41.4343 4.75435 40.5193 5.12942 39.6148C5.19187 39.4642 5.1206 39.2915 4.97023 39.2288C4.95114 39.2742 4.93211 39.3196 4.91313 39.3651C4.89416 39.4106 4.87523 39.4561 4.85636 39.5016C4.47954 40.4103 4.12305 41.3295 3.78746 42.2588C3.77073 42.3051 3.75405 42.3515 3.73742 42.3978C3.72079 42.4442 3.70422 42.4906 3.6877 42.537ZM5.92704 37.065C6.07465 37.134 6.25035 37.0705 6.31973 36.923C6.73793 36.0337 7.17609 35.1556 7.63364 34.2893C7.70979 34.1452 7.65484 33.9666 7.51092 33.8902C7.48771 33.9337 7.46455 33.9771 7.44144 34.0207C7.41833 34.0642 7.39527 34.1077 7.37225 34.1513C6.91257 35.0216 6.47237 35.9037 6.05222 36.7972C6.03125 36.8418 6.01034 36.8864 5.98947 36.931C5.96861 36.9756 5.9478 37.0203 5.92704 37.065ZM8.66398 31.8245C8.80457 31.9068 8.98539 31.8599 9.06812 31.7194C9.56655 30.8731 10.084 30.0392 10.6198 29.2185C10.709 29.082 10.6707 28.8992 10.5345 28.8098C10.5074 28.8509 10.4803 28.8921 10.4533 28.9332C10.4262 28.9744 10.3993 29.0157 10.3723 29.0569C9.83398 29.8814 9.31415 30.7191 8.8134 31.5694C8.7884 31.6118 8.76344 31.6543 8.73854 31.6968C8.71364 31.7393 8.68878 31.7819 8.66398 31.8245ZM11.8732 26.8593C12.0056 26.9542 12.1899 26.9242 12.2853 26.7919C12.8593 25.9954 13.4513 25.2128 14.0607 24.4445C14.162 24.3168 14.1407 24.1312 14.0133 24.0296C13.9825 24.0681 13.9518 24.1066 13.9211 24.1451C13.8904 24.1836 13.8597 24.2222 13.8291 24.2608C13.2169 25.0326 12.6222 25.8189 12.0455 26.619C12.0167 26.659 11.9879 26.699 11.9592 26.739C11.9305 26.7791 11.9018 26.8192 11.8732 26.8593ZM15.5256 22.2104C15.6487 22.3172 15.8351 22.3042 15.9421 22.1812C16.5867 21.4412 17.248 20.7161 17.9256 20.0067C18.0382 19.8888 18.034 19.7021 17.9165 19.5892C17.8823 19.6247 17.8481 19.6602 17.814 19.6958C17.7799 19.7313 17.7458 19.7669 17.7118 19.8025C17.0311 20.5152 16.3667 21.2436 15.7192 21.9871C15.6869 22.0242 15.6545 22.0614 15.6223 22.0986C15.59 22.1359 15.5578 22.1731 15.5256 22.2104ZM19.5892 17.9165C19.702 18.034 19.8888 18.0382 20.0067 17.9256C20.7161 17.248 21.4412 16.5867 22.1812 15.9421C22.3042 15.8351 22.3172 15.6487 22.2104 15.5256C22.1731 15.5578 22.1359 15.59 22.0986 15.6223C22.0614 15.6545 22.0242 15.6869 21.9871 15.7192C21.2436 16.3667 20.5152 17.0311 19.8025 17.7118C19.7669 17.7458 19.7313 17.7799 19.6958 17.814C19.6602 17.8481 19.6247 17.8823 19.5892 17.9165ZM24.0296 14.0133C24.1312 14.1407 24.3168 14.162 24.4445 14.0607C25.2128 13.4513 25.9954 12.8593 26.7919 12.2853C26.9241 12.1899 26.9542 12.0056 26.8593 11.8732C26.8191 11.9018 26.7791 11.9305 26.739 11.9592C26.699 11.9879 26.659 12.0167 26.619 12.0455C25.8189 12.6222 25.0326 13.2169 24.2608 13.8291C24.2222 13.8597 24.1836 13.8904 24.1451 13.9211C24.1066 13.9518 24.0681 13.9825 24.0296 14.0133ZM28.8098 10.5345C28.8992 10.6707 29.082 10.709 29.2185 10.6198C30.0392 10.084 30.8731 9.56655 31.7194 9.06812C31.8599 8.98539 31.9068 8.80457 31.8245 8.66398C31.7819 8.68878 31.7393 8.71364 31.6968 8.73854C31.6543 8.76345 31.6118 8.7884 31.5694 8.8134C30.7191 9.31415 29.8814 9.83399 29.0569 10.3723C29.0157 10.3993 28.9744 10.4262 28.9332 10.4533C28.8921 10.4803 28.8509 10.5074 28.8098 10.5345ZM33.8902 7.51092C33.9666 7.65483 34.1452 7.70979 34.2893 7.63364C35.1556 7.17609 36.0337 6.73793 36.923 6.31972C37.0705 6.25035 37.134 6.07465 37.065 5.92704C37.0203 5.9478 36.9756 5.96861 36.931 5.98947C36.8864 6.01033 36.8418 6.03125 36.7972 6.05221C35.9037 6.47237 35.0216 6.91257 34.1513 7.37225C34.1077 7.39527 34.0642 7.41833 34.0207 7.44144C33.9771 7.46455 33.9337 7.48771 33.8902 7.51092ZM39.2288 4.97022C39.2915 5.1206 39.4642 5.19187 39.6148 5.12942C40.5193 4.75435 41.4343 4.39952 42.3592 4.0655C42.5125 4.01012 42.592 3.84108 42.537 3.6877C42.4906 3.70422 42.4442 3.72079 42.3978 3.73742C42.3515 3.75405 42.3051 3.77073 42.2588 3.78746C41.3295 4.12305 40.4103 4.47954 39.5016 4.85635C39.4561 4.87523 39.4106 4.89415 39.3651 4.91313C39.3196 4.93211 39.2742 4.95114 39.2288 4.97022ZM44.7807 2.936C44.8292 3.09156 44.9945 3.17858 45.1502 3.1304C46.085 2.84127 47.0289 2.57308 47.9815 2.32637C48.1393 2.2855 48.2342 2.12459 48.1937 1.96675C48.1459 1.97889 48.0982 1.99107 48.0505 2.00331C48.0027 2.01555 47.955 2.02785 47.9073 2.0402C46.9503 2.28806 46.002 2.55751 45.0629 2.84799C45.0158 2.86255 44.9688 2.87717 44.9217 2.89183C44.8747 2.9065 44.8277 2.92123 44.7807 2.936ZM50.4964 1.42719C50.5303 1.58658 50.6868 1.68858 50.8463 1.65509C51.8029 1.45429 52.7674 1.27494 53.7392 1.11758C53.9002 1.09152 54.0096 0.940108 53.9839 0.779197C53.9352 0.786848 53.8866 0.794554 53.8379 0.802315C53.7892 0.810079 53.7406 0.817897 53.692 0.82577C52.7156 0.983862 51.7466 1.16404 50.7856 1.36578C50.7374 1.37591 50.6892 1.38608 50.641 1.39632C50.5928 1.40655 50.5446 1.41684 50.4964 1.42719ZM56.3265 0.455282C56.3455 0.617126 56.4919 0.733166 56.6539 0.714569C57.6241 0.603171 58.601 0.513569 59.584 0.446267C59.7467 0.435131 59.8696 0.294425 59.8588 0.13183C59.8096 0.134971 59.7605 0.138167 59.7113 0.141419C59.6622 0.144672 59.613 0.147981 59.5638 0.151346C58.5763 0.218958 57.5949 0.308973 56.6201 0.420887C56.5712 0.426508 56.5222 0.432184 56.4733 0.437915C56.4244 0.443649 56.3754 0.449438 56.3265 0.455282ZM62.2214 0.0242371C62.2255 0.18714 62.3607 0.316088 62.5236 0.312381C63.0144 0.301222 63.5065 0.295612 64 0.295612C64.4934 0.295612 64.9856 0.301222 65.4763 0.312381C65.6393 0.316087 65.7745 0.187139 65.7786 0.0242365C65.7293 0.022893 65.6801 0.0216052 65.6308 0.020373C65.5816 0.0191414 65.5323 0.0179654 65.4831 0.0168451C64.9901 0.00563523 64.4957 0 64 0C63.5043 0 63.0099 0.00563539 62.5169 0.0168456C62.4677 0.0179659 62.4184 0.0191419 62.3692 0.0203734C62.3199 0.0216057 62.2706 0.0228936 62.2214 0.0242371ZM68.1412 0.131829C68.1304 0.294424 68.2533 0.43513 68.4159 0.446266C69.399 0.513568 70.3759 0.60317 71.3461 0.714568C71.5081 0.733165 71.6545 0.617125 71.6735 0.455282C71.6245 0.449438 71.5756 0.443649 71.5267 0.437915C71.4778 0.432183 71.4288 0.426507 71.3799 0.420886C70.4051 0.308972 69.4237 0.218956 68.4361 0.151345C68.387 0.14798 68.3378 0.144671 68.2887 0.141418C68.2395 0.138166 68.1904 0.13497 68.1412 0.131829ZM74.0161 0.779197C73.9904 0.940108 74.0998 1.09152 74.2608 1.11758C75.2326 1.27494 76.1971 1.45429 77.1536 1.65509C77.3132 1.68858 77.4697 1.58658 77.5035 1.42719C77.4554 1.41684 77.4072 1.40655 77.359 1.39632C77.3108 1.38608 77.2626 1.37591 77.2144 1.36578C76.2534 1.16404 75.2844 0.983862 74.308 0.82577C74.2594 0.817897 74.2108 0.810078 74.1621 0.802314C74.1134 0.794554 74.0648 0.786848 74.0161 0.779197ZM79.8063 1.96675C79.7658 2.12459 79.8607 2.2855 80.0185 2.32637C80.9711 2.57308 81.915 2.84127 82.8498 3.1304C83.0055 3.17858 83.1708 3.09156 83.2193 2.936C83.1723 2.92123 83.1253 2.9065 83.0783 2.89183C83.0312 2.87717 82.9842 2.86255 82.9371 2.84799C81.998 2.55751 81.0497 2.28806 80.0927 2.0402C80.045 2.02785 79.9973 2.01555 79.9495 2.00331C79.9018 1.99107 79.8541 1.97889 79.8063 1.96675ZM85.463 3.6877C85.408 3.84108 85.4875 4.01012 85.6408 4.0655C86.5658 4.39952 87.4807 4.75435 88.3852 5.12942C88.5358 5.19187 88.7085 5.1206 88.7712 4.97022C88.7258 4.95114 88.6804 4.93211 88.6349 4.91313C88.5894 4.89416 88.5439 4.87523 88.4984 4.85636C87.5897 4.47954 86.6705 4.12305 85.7412 3.78746C85.6949 3.77073 85.6485 3.75405 85.6022 3.73742C85.5558 3.72079 85.5094 3.70422 85.463 3.6877ZM90.935 5.92704C90.866 6.07465 90.9295 6.25035 91.077 6.31973C91.9663 6.73793 92.8444 7.17609 93.7107 7.63364C93.8548 7.70979 94.0334 7.65484 94.1098 7.51093C94.0663 7.48772 94.0229 7.46455 93.9793 7.44144C93.9358 7.41833 93.8923 7.39527 93.8487 7.37226C92.9784 6.91258 92.0963 6.47237 91.2028 6.05221C91.1582 6.03125 91.1136 6.01034 91.069 5.98947C91.0244 5.96861 90.9797 5.9478 90.935 5.92704ZM96.1755 8.66397C96.0932 8.80457 96.1401 8.98539 96.2806 9.06812C97.1269 9.56655 97.9608 10.084 98.7815 10.6198C98.918 10.709 99.1008 10.6707 99.1902 10.5345C99.1491 10.5074 99.1079 10.4803 99.0668 10.4533C99.0256 10.4262 98.9843 10.3993 98.9431 10.3723C98.1186 9.83398 97.2809 9.31415 96.4306 8.8134C96.3882 8.7884 96.3457 8.76344 96.3032 8.73854C96.2606 8.71364 96.2181 8.68878 96.1755 8.66397ZM101.141 11.8732C101.046 12.0056 101.076 12.1899 101.208 12.2853C102.005 12.8593 102.787 13.4513 103.555 14.0607C103.683 14.162 103.869 14.1407 103.97 14.0133C103.932 13.9825 103.893 13.9518 103.855 13.9211C103.816 13.8904 103.778 13.8597 103.739 13.8291C102.967 13.2169 102.181 12.6222 101.381 12.0455C101.341 12.0167 101.301 11.9879 101.261 11.9592C101.221 11.9305 101.181 11.9018 101.141 11.8732ZM105.79 15.5256C105.683 15.6487 105.696 15.8351 105.819 15.9421C106.559 16.5867 107.284 17.248 107.993 17.9256C108.111 18.0382 108.298 18.034 108.411 17.9165C108.375 17.8823 108.34 17.8481 108.304 17.814C108.269 17.7799 108.233 17.7458 108.197 17.7118C107.485 17.0311 106.756 16.3667 106.013 15.7192C105.976 15.6869 105.939 15.6545 105.901 15.6223C105.864 15.59 105.827 15.5578 105.79 15.5256ZM110.084 19.5892C109.966 19.7021 109.962 19.8888 110.074 20.0067C110.752 20.7161 111.413 21.4412 112.058 22.1812C112.165 22.3042 112.351 22.3172 112.474 22.2104C112.442 22.1731 112.41 22.1359 112.378 22.0986C112.345 22.0614 112.313 22.0242 112.281 21.9871C111.633 21.2436 110.969 20.5152 110.288 19.8025C110.254 19.7669 110.22 19.7313 110.186 19.6958C110.152 19.6602 110.118 19.6247 110.084 19.5892ZM113.987 24.0296C113.859 24.1312 113.838 24.3168 113.939 24.4445C114.549 25.2128 115.141 25.9954 115.715 26.7919C115.81 26.9241 115.994 26.9542 116.127 26.8593C116.098 26.8191 116.07 26.7791 116.041 26.739C116.012 26.699 115.983 26.659 115.955 26.619C115.378 25.8189 114.783 25.0326 114.171 24.2608C114.14 24.2222 114.11 24.1836 114.079 24.1451C114.048 24.1066 114.017 24.0681 113.987 24.0296ZM117.465 28.8098C117.329 28.8992 117.291 29.082 117.38 29.2185C117.916 30.0392 118.433 30.8731 118.932 31.7194C119.015 31.8599 119.195 31.9068 119.336 31.8245C119.311 31.7819 119.286 31.7393 119.261 31.6968C119.237 31.6543 119.212 31.6118 119.187 31.5694C118.686 30.7191 118.166 29.8814 117.628 29.0569C117.601 29.0157 117.574 28.9744 117.547 28.9332C117.52 28.8921 117.493 28.8509 117.465 28.8098ZM120.489 33.8902C120.345 33.9666 120.29 34.1452 120.366 34.2893C120.824 35.1556 121.262 36.0337 121.68 36.923C121.75 37.0705 121.925 37.134 122.073 37.065C122.052 37.0203 122.031 36.9756 122.011 36.931C121.99 36.8864 121.969 36.8418 121.948 36.7972C121.528 35.9037 121.087 35.0216 120.628 34.1513C120.605 34.1077 120.582 34.0642 120.559 34.0207C120.535 33.9771 120.512 33.9337 120.489 33.8902ZM123.03 39.2288C122.879 39.2915 122.808 39.4642 122.871 39.6148C123.246 40.5193 123.6 41.4343 123.935 42.3592C123.99 42.5125 124.159 42.592 124.312 42.537C124.296 42.4906 124.279 42.4442 124.263 42.3978C124.246 42.3515 124.229 42.3051 124.213 42.2588C123.877 41.3295 123.52 40.4103 123.144 39.5016C123.125 39.4561 123.106 39.4106 123.087 39.3651C123.068 39.3196 123.049 39.2742 123.03 39.2288ZM125.064 44.7807C124.908 44.8292 124.821 44.9945 124.87 45.1502C125.159 46.085 125.427 47.0289 125.674 47.9815C125.715 48.1393 125.875 48.2342 126.033 48.1937C126.021 48.1459 126.009 48.0982 125.997 48.0505C125.984 48.0027 125.972 47.955 125.96 47.9073C125.712 46.9503 125.442 46.002 125.152 45.0629C125.137 45.0158 125.123 44.9688 125.108 44.9217C125.093 44.8747 125.079 44.8277 125.064 44.7807ZM126.573 50.4965C126.413 50.5303 126.311 50.6868 126.345 50.8463C126.546 51.8029 126.725 52.7674 126.882 53.7392C126.908 53.9002 127.06 54.0096 127.221 53.9839C127.213 53.9352 127.205 53.8866 127.198 53.8379C127.19 53.7892 127.182 53.7406 127.174 53.692C127.016 52.7156 126.836 51.7466 126.634 50.7856C126.624 50.7374 126.614 50.6892 126.604 50.641C126.593 50.5928 126.583 50.5446 126.573 50.4965ZM127.868 59.8588C127.865 59.8096 127.862 59.7605 127.859 59.7113C127.855 59.6622 127.852 59.613 127.849 59.5638C127.781 58.5763 127.691 57.5949 127.579 56.6201C127.573 56.5712 127.568 56.5222 127.562 56.4733C127.556 56.4244 127.551 56.3754 127.545 56.3265C127.383 56.3455 127.267 56.4919 127.285 56.6539C127.397 57.6241 127.486 58.601 127.554 59.584C127.565 59.7467 127.706 59.8696 127.868 59.8588Z" fill="white" fill-opacity="0.5"/>
<path fill-rule="evenodd" clip-rule="evenodd" d="M64.0001 84.3973C75.2652 84.3973 84.3973 75.2652 84.3973 64.0001C84.3973 52.735 75.2652 43.6029 64.0001 43.6029C52.735 43.6029 43.6029 52.735 43.6029 64.0001C43.6029 75.2652 52.735 84.3973 64.0001 84.3973ZM64.0001 99.1779C83.4283 99.1779 99.1779 83.4283 99.1779 64.0001C99.1779 44.5719 83.4283 28.8223 64.0001 28.8223C44.5719 28.8223 28.8223 44.5719 28.8223 64.0001C28.8223 83.4283 44.5719 99.1779 64.0001 99.1779Z" fill="white" fill-opacity="0.5"/>
</symbol>

<symbol id="blue-circle" xmlns="http://www.w3.org/2000/svg" width="829" height="1158" viewBox="0 0 829 1158" fill="none">
  <g filter="url(#filter0_f_1725_464)">
    <path d="M226.429 505.686C258.631 509.505 305.303 512.369 321.403 531.081C337.708 549.983 323.238 584.542 300.615 606.499C277.992 628.457 247.014 637.622 222.149 645.45C197.284 653.278 178.534 659.961 162.23 656.524C146.129 653.087 132.474 639.722 101.699 633.612C70.9237 627.502 23.0289 628.839 1.22146 611.273C-20.7898 593.898 -16.5098 557.62 8.76234 541.2C34.0345 524.971 80.5026 528.217 109.036 523.443C137.773 518.67 148.574 505.686 162.841 501.677C176.904 497.476 194.431 502.059 226.429 505.686Z" fill="#0065F2"/>
  </g>
  <defs>
    <filter id="filter0_f_1725_464" x="-513.015" y="0" width="1341.39" height="1157.45" filterUnits="userSpaceOnUse" color-interpolation-filters="sRGB">
      <feFlood flood-opacity="0" result="BackgroundImageFix"/>
      <feBlend mode="normal" in="SourceGraphic" in2="BackgroundImageFix" result="shape"/>
      <feGaussianBlur stdDeviation="250" result="effect1_foregroundBlur_1725_464"/>
    </filter>
  </defs>
</symbol>

<svg id="footer-ellipse-1" width="1215" height="1215" viewBox="0 0 1215 1215" fill="none" xmlns="http://www.w3.org/2000/svg">
<g filter="url(#filter0_f_2064_1563)">
<circle cx="607.5" cy="607.5" r="207.5" fill="#0065F2" fill-opacity="0.5"/>
</g>
<defs>
<filter id="filter0_f_2064_1563" x="0" y="0" width="1215" height="1215" filterUnits="userSpaceOnUse" color-interpolation-filters="sRGB">
<feFlood flood-opacity="0" result="BackgroundImageFix"/>
<feBlend mode="normal" in="SourceGraphic" in2="BackgroundImageFix" result="shape"/>
<feGaussianBlur stdDeviation="200" result="effect1_foregroundBlur_2064_1563"/>
</filter>
</defs>
</svg>


<symbol id="footer-ellipse-2" width="1215" height="1215" viewBox="0 0 1215 1215" fill="none" xmlns="http://www.w3.org/2000/svg">
<g filter="url(#filter0_f_2064_1562)">
<circle cx="607.5" cy="607.5" r="207.5" fill="#0065F2" fill-opacity="0.75"/>
</g>
<defs>
<filter id="filter0_f_2064_1562" x="0" y="0" width="1215" height="1215" filterUnits="userSpaceOnUse" color-interpolation-filters="sRGB">
<feFlood flood-opacity="0" result="BackgroundImageFix"/>
<feBlend mode="normal" in="SourceGraphic" in2="BackgroundImageFix" result="shape"/>
<feGaussianBlur stdDeviation="200" result="effect1_foregroundBlur_2064_1562"/>
</filter>
</defs>
</symbol>
</defs>
</svg>
